<?xml version="1.0" encoding="UTF-8" standalone="no"?>
<svg
   xmlns:osb="http://www.openswatchbook.org/uri/2009/osb"
   xmlns:dc="http://purl.org/dc/elements/1.1/"
   xmlns:cc="http://creativecommons.org/ns#"
   xmlns:rdf="http://www.w3.org/1999/02/22-rdf-syntax-ns#"
   xmlns:svg="http://www.w3.org/2000/svg"
   xmlns="http://www.w3.org/2000/svg"
   xmlns:sodipodi="http://sodipodi.sourceforge.net/DTD/sodipodi-0.dtd"
   xmlns:inkscape="http://www.inkscape.org/namespaces/inkscape"
   id="master-artboard"
   viewBox="0 0 425.07444 338.02337"
   version="1.1"
   x="0px"
   y="0px"
   width="425.07443"
   height="338.02338"
   sodipodi:docname="breakout-logo-2.svg"
   inkscape:version="1.0.1 (c497b03c, 2020-09-10)">
  <metadata
     id="metadata968">
    <rdf:RDF>
      <cc:Work
         rdf:about="">
        <dc:format>image/svg+xml</dc:format>
        <dc:type
           rdf:resource="http://purl.org/dc/dcmitype/StillImage" />
        <dc:title></dc:title>
      </cc:Work>
    </rdf:RDF>
  </metadata>
  <defs
     id="defs966">
    <marker
       style="overflow:visible"
       id="Arrow1Lstart"
       refX="0"
       refY="0"
       orient="auto"
       inkscape:stockid="Arrow1Lstart"
       inkscape:isstock="true">
      <path
         transform="matrix(0.8,0,0,0.8,10,0)"
         style="fill:#b3b3b3;fill-opacity:1;fill-rule:evenodd;stroke:#b3b3b3;stroke-width:1pt;stroke-opacity:1"
         d="M 0,0 5,-5 -12.5,0 5,5 Z"
         id="path851" />
    </marker>
    <linearGradient
       id="linearGradient911"
       osb:paint="solid">
      <stop
         style="stop-color:#f2f2f2;stop-opacity:1;"
         offset="0"
         id="stop909" />
    </linearGradient>
  </defs>
  <sodipodi:namedview
     pagecolor="#ffffff"
     bordercolor="#666666"
     borderopacity="1"
     objecttolerance="10"
     gridtolerance="10"
     guidetolerance="10"
     inkscape:pageopacity="0"
     inkscape:pageshadow="2"
     inkscape:window-width="1536"
     inkscape:window-height="915"
     id="namedview964"
     showgrid="false"
     fit-margin-top="0"
     fit-margin-left="0"
     fit-margin-right="0"
     fit-margin-bottom="0"
     inkscape:zoom="1.4142136"
     inkscape:cx="109.7281"
     inkscape:cy="167.45792"
     inkscape:window-x="0"
     inkscape:window-y="23"
     inkscape:window-maximized="1"
     inkscape:current-layer="g869"
     inkscape:document-rotation="0"
     inkscape:snap-grids="true"
     inkscape:snap-page="true" />
  <g
     id="g869"
     transform="translate(-294.37213,-450.32375)"
     inkscape:groupmode="layer"
     style="display:inline">
    <ellipse
       style="display:inline;mix-blend-mode:darken;fill:#ffffe4;fill-opacity:1;fill-rule:nonzero;stroke:none;stroke-width:15.1181;stroke-linecap:round;stroke-linejoin:round;stroke-miterlimit:4;stroke-dasharray:none;stroke-opacity:1;paint-order:stroke fill markers"
       id="ellipse897-6"
       cx="508.90869"
       cy="622.20001"
       rx="164.11179"
       ry="158.58807"
       inkscape:label="ellipse897" />
    <g
       id="g865"
       style="display:inline"
       transform="translate(25.79899,-45.7193)">
      <path
         d="m 369,773.49085 v -97.30457 l -26.10001,32.5227 v 37.91181 z"
         class="st5"
         style="display:inline;fill:#7aaccc;stroke-width:1"
         id="path853"
         sodipodi:nodetypes="ccccc" />
      <path
         d="M 418.79999,806.34641 V 624.94313 l -26.09998,21.97874 v 159.42454 z"
         class="st6"
         style="fill:#ffda75;stroke-width:1"
         id="path855"
         sodipodi:nodetypes="ccccc" />
      <path
         d="M 472.60001,821.96272 V 642.09877 L 446.5,621.69999 v 200.26273 z"
         class="st7"
         style="fill:#7bcb9b;stroke-width:1"
         id="path857" />
      <path
         d="M 526.40002,822.06662 V 667.866 L 500.29999,645.3 v 176.76662 z"
         class="st8"
         style="fill:#dd6966;stroke-width:1"
         id="path859" />
      <path
         d="M 580.20001,792.85392 V 626.7 l -26.10003,45.7347 v 138.09689 z"
         class="st9"
         style="fill:#e0a66d;stroke-width:1"
         id="path861"
         sodipodi:nodetypes="ccccc" />
      <path
         d="M 622.68629,761.38481 V 580.24926 l -26.09998,31.79503 v 176.21058 z"
         class="st10"
         style="display:inline;fill:#4dbab4;stroke-width:1"
         id="path863"
         sodipodi:nodetypes="ccccc" />
    </g>
    <ellipse
       style="display:inline;mix-blend-mode:normal;fill:none;fill-opacity:1;fill-rule:nonzero;stroke:#000000;stroke-width:15.1181;stroke-linecap:round;stroke-linejoin:round;stroke-miterlimit:4;stroke-dasharray:none;stroke-opacity:1;paint-order:stroke fill markers"
       id="ellipse897"
       cx="508.90869"
       cy="622.20001"
       rx="164.11179"
       ry="158.58807"
       inkscape:label="ellipse897" />
    <g
       id="g948"
       transform="translate(20.087716,-48.599505)"
       style="display:inline">
      <path
         d="m 689.91005,532.37206 a 24,24 0 0 1 -24,24 24,24 0 0 1 -24,-24 24,24 0 0 1 24,-24 24,24 0 0 1 24,24 z"
         class="st2"
         style="display:inline;fill:#2096f3;fill-opacity:1;stroke:#2096f3;stroke-width:18.8976;stroke-miterlimit:10;stroke-dasharray:none;stroke-opacity:1"
         id="path839"
         inkscape:label="path839" />
      <path
         d="M 289.40251,769.54721 431.48578,596.00101 546.90712,699.34115 654.30709,545.92841"
         class="st11"
         style="display:inline;fill:none;fill-opacity:1;stroke:#2096f3;stroke-width:30.2362;stroke-linecap:round;stroke-linejoin:round;stroke-miterlimit:10;stroke-dasharray:none;stroke-opacity:1"
         id="path867"
         sodipodi:nodetypes="cccc" />
      <path
         d="m 567.69209,687.37893 a 24,24 0 0 1 -24,24 24,24 0 0 1 -24,-24 24,24 0 0 1 24,-24 24,24 0 0 1 24,24 z"
         class="st2"
         style="display:inline;fill:#2096f3;fill-opacity:1;stroke:#2096f3;stroke-width:18.8976;stroke-miterlimit:10;stroke-dasharray:none;stroke-opacity:1"
         id="path839-9"
         inkscape:label="path839" />
      <path
         d="m 459.50476,602.40481 a 24,24 0 0 1 -24,24 24,24 0 0 1 -24,-24 24,24 0 0 1 24,-24 24,24 0 0 1 24,24 z"
         class="st2"
         style="display:inline;fill:#2096f3;fill-opacity:1;stroke:#2096f3;stroke-width:18.8976;stroke-miterlimit:10;stroke-dasharray:none;stroke-opacity:1"
         id="path839-9-7"
         inkscape:label="path839" />
    </g>
  </g>
</svg>
