<?xml version="1.0" encoding="UTF-8" standalone="no"?>
<svg
   xmlns:dc="http://purl.org/dc/elements/1.1/"
   xmlns:cc="http://creativecommons.org/ns#"
   xmlns:rdf="http://www.w3.org/1999/02/22-rdf-syntax-ns#"
   xmlns:svg="http://www.w3.org/2000/svg"
   xmlns="http://www.w3.org/2000/svg"
   xmlns:sodipodi="http://sodipodi.sourceforge.net/DTD/sodipodi-0.dtd"
   xmlns:inkscape="http://www.inkscape.org/namespaces/inkscape"
   version="1.1"
   x="0px"
   y="0px"
   viewBox="0 0 874.53333 786.71515"
   xml:space="preserve"
   id="svg88"
   sodipodi:docname="breakout-logo.svg"
   width="874.53333"
   height="786.71515"
   inkscape:version="1.0.1 (c497b03c, 2020-09-10)"><metadata
     id="metadata94"><rdf:RDF><cc:Work
         rdf:about=""><dc:format>image/svg+xml</dc:format><dc:type
           rdf:resource="http://purl.org/dc/dcmitype/StillImage" /><dc:title /></cc:Work></rdf:RDF></metadata><defs
     id="defs92" /><sodipodi:namedview
     pagecolor="#ffffff"
     bordercolor="#666666"
     borderopacity="1"
     objecttolerance="10"
     gridtolerance="10"
     guidetolerance="10"
     inkscape:pageopacity="0"
     inkscape:pageshadow="2"
     inkscape:window-width="1536"
     inkscape:window-height="915"
     id="namedview90"
     showgrid="false"
     fit-margin-top="0"
     fit-margin-left="0"
     fit-margin-right="0"
     fit-margin-bottom="0"
     inkscape:zoom="0.35355339"
     inkscape:cx="357.83072"
     inkscape:cy="616.31753"
     inkscape:window-x="0"
     inkscape:window-y="23"
     inkscape:window-maximized="1"
     inkscape:current-layer="svg88"
     inkscape:document-rotation="0" /><g
     id="g82"
     transform="translate(-74.755556,-119.5)"
     style="fill:#0296cc;fill-opacity:1"><g
       id="g14"
       style="fill:#0296cc;fill-opacity:1"><g
         id="g12"
         style="fill:#0296cc;fill-opacity:1"><path
           d="m 115.7,119.8 c -22.9,0.6 -40.6,18.6 -40.9,41.4 -0.1,3.1 0,6.2 0,9.2 0,16.2 0,32.4 0,48.6 0,26.3 0,52.5 0,78.8 0,32.3 0,64.6 0,96.8 0,34.5 0,68.9 0,103.4 0,32.3 0,64.6 0,96.8 0,26.3 0,52.5 0,78.8 0,16.2 0,32.4 0,48.6 0,3.1 -0.1,6.2 0,9.2 0.4,22.8 18,41 40.9,41.4 5.7,0.1 11.3,0 17,0 15.6,0 31.2,0 46.7,0 23.4,0 46.8,0 70.2,0 29.1,0 58.3,0 87.4,0 33,0 65.9,0 98.9,0 34.4,0 68.7,0 103.1,0 33.8,0 67.6,0 101.4,0 31.2,0 62.3,0 93.5,0 26.4,0 52.9,0 79.3,0 19.6,0 39.2,0 58.9,0 10.7,0 21.4,0 32.1,0 2.3,0 4.6,0.1 6.8,-0.1 21.8,-2 38,-19.5 38.2,-41.4 0.1,-9.9 0,-19.9 0,-29.8 0,-21.9 0,-43.8 0,-65.7 0,-30 0,-60 0,-90.1 0,-33.8 0,-67.7 0,-101.5 0,-33.8 0,-67.5 0,-101.3 0,-29.7 0,-59.3 0,-89 0,-21.6 0,-43.1 0,-64.7 0,-9.4 0.2,-18.9 0,-28.4 -0.4,-22.8 -18.1,-40.8 -40.9,-41.3 -1.6,0 -3.1,0 -4.7,0 -11,0 -22.1,0 -33.1,0 -19.9,0 -39.8,0 -59.7,0 -26.6,0 -53.3,0 -79.9,0 -31.5,0 -62.9,0 -94.4,0 -33.9,0 -67.7,0 -101.6,0 -34.3,0 -68.7,0 -103,0 -32.7,0 -65.4,0 -98.1,0 -29,0 -58,0 -87,0 -23.2,0 -46.4,0 -69.5,0 -15.3,0 -30.6,0 -45.8,0 -5.2,0.3 -10.5,0.3 -15.8,0.3 -7.8,0 -15.4,6.9 -15,15 0.4,8.1 6.6,15 15,15 5.6,0 11.1,0 16.7,0 15.3,0 30.6,0 45.9,0 22.9,0 45.8,0 68.7,0 28.7,0 57.4,0 86.1,0 32.4,0 64.7,0 97.1,0 34,0 68,0 102,0 33.4,0 66.9,0 100.3,0 31.2,0 62.4,0 93.5,0 26.7,0 53.5,0 80.2,0 20.3,0 40.5,0 60.8,0 11.7,0 23.4,0 35.1,0 2.1,0 4.1,0 6.2,0 0.5,0 1.1,0 1.6,0 2.7,0.1 -1.1,-0.7 1.3,0.3 0.8,0.3 1.7,0.5 2.5,0.8 -0.3,-0.1 -2,-1 -0.6,-0.2 0.5,0.3 3.4,2.2 2.3,1.3 -1.3,-1 0.3,0.3 0.4,0.5 0.6,0.6 1.2,1.2 1.8,1.9 -1.7,-1.9 0,0.3 0.6,1.2 1.4,2 0,-1.2 0.6,1.2 0.3,1 0.9,3.8 0.6,1.2 0.1,0.9 0.1,1.8 0.1,2.7 0,0.2 0,0.3 0,0.5 0.1,9.5 0,19 0,28.5 0,21.4 0,42.7 0,64.1 0,29.2 0,58.3 0,87.5 0,33.4 0,66.8 0,100.1 0,33.6 0,67.1 0,100.7 0,29.9 0,59.7 0,89.6 0,22.2 0,44.4 0,66.5 0,10.8 0,21.7 0,32.5 0,0.9 0,1.8 0,2.7 0,1.1 -0.8,2.3 0,0 -0.2,0.6 -0.3,1.3 -0.5,1.9 -0.2,0.6 -0.4,1.3 -0.6,1.9 0.1,-0.3 1,-2 0.2,-0.6 -0.3,0.5 -2.2,3.4 -1.3,2.3 1,-1.3 -0.3,0.3 -0.5,0.4 -0.6,0.6 -1.2,1.2 -1.9,1.8 1.9,-1.7 -0.3,0 -1.2,0.6 -2,1.4 1.2,0 -1.2,0.6 -1,0.3 -3.9,0.9 -1.2,0.6 -0.9,0.1 -1.8,0.1 -2.7,0.1 -1.5,0 -3.1,0 -4.6,0 -10.8,0 -21.7,0 -32.5,0 -19.5,0 -39.1,0 -58.6,0 -26.1,0 -52.1,0 -78.2,0 -30.8,0 -61.7,0 -92.5,0 -33.5,0 -66.9,0 -100.4,0 -34,0 -68.1,0 -102.1,0 -32.4,0 -64.9,0 -97.3,0 -29.1,0 -58.3,0 -87.4,0 -23.6,0 -47.3,0 -70.9,0 -16.1,0 -32.2,0 -48.3,0 -6.5,0 -13.1,0.1 -19.6,0 -1.4,0 -3.9,-0.8 -1.6,0 -1.2,-0.4 -2.6,-0.6 -3.8,-1.1 2.4,0.9 -0.2,-0.3 -1.1,-0.8 -2.2,-1.1 0.6,1 -1,-0.8 -0.4,-0.5 -0.9,-0.9 -1.3,-1.4 -1.1,-1.1 0.9,1.8 -0.4,-0.5 -0.5,-0.9 -1.7,-3.4 -0.8,-1.1 -0.5,-1.2 -0.7,-2.5 -1.1,-3.8 0.8,2.3 0,-0.1 0,-1.4 0,-0.2 0,-0.4 0,-0.6 0,-3.1 0,-6.3 0,-9.4 0,-16.1 0,-32.2 0,-48.3 0,-26 0,-51.9 0,-77.9 0,-31.7 0,-63.5 0,-95.2 0,-34 0,-67.9 0,-101.9 0,-32.1 0,-64.3 0,-96.4 0,-26.4 0,-52.8 0,-79.3 0,-16.7 0,-33.5 0,-50.2 0,-3.5 0,-7.1 0,-10.6 0,-0.5 0,-0.9 0,-1.4 0,-1.4 0.8,-3.7 0,-1.4 0.4,-1.2 0.6,-2.6 1.1,-3.8 -0.9,2.4 0.3,-0.2 0.8,-1.1 1.1,-2.2 -1,0.6 0.8,-1 0.6,-0.6 1.2,-1.2 1.9,-1.8 -0.2,0.2 -1.9,1.3 -0.5,0.4 0.5,-0.3 3.5,-2 2.2,-1.4 -1.4,0.6 2.1,-0.5 2.6,-0.7 1.2,-0.7 -0.1,-0.1 -0.7,0 0.9,-0.1 1.8,-0.1 2.7,-0.1 7.8,-0.2 15.4,-6.8 15,-15 -0.7,-8.1 -6.9,-15.4 -15.3,-15.2 z"
           id="path10"
           style="fill:#0296cc;fill-opacity:1" /></g></g><g
       id="g20"
       style="fill:#0296cc;fill-opacity:1"><g
         id="g18"
         style="fill:#0296cc;fill-opacity:1"><path
           d="m 590,876.2 c -45.5,0 -91,0 -136.5,0 -6.5,0 -13,0 -19.5,0 5,5 10,10 15,15 0,-38.9 0,-77.8 0,-116.6 0,-5.5 0,-11 0,-16.5 -5,5 -10,10 -15,15 45.5,0 91,0 136.5,0 6.5,0 13,0 19.5,0 -5,-5 -10,-10 -15,-15 0,38.9 0,77.8 0,116.6 0,5.5 0,11 0,16.5 0,7.8 6.9,15.4 15,15 8.1,-0.4 15,-6.6 15,-15 0,-38.9 0,-77.8 0,-116.6 0,-5.5 0,-11 0,-16.5 0,-8.1 -6.9,-15 -15,-15 -45.5,0 -91,0 -136.5,0 -6.5,0 -13,0 -19.5,0 -8.1,0 -15,6.9 -15,15 0,38.9 0,77.8 0,116.6 0,5.5 0,11 0,16.5 0,8.1 6.9,15 15,15 45.5,0 91,0 136.5,0 6.5,0 13,0 19.5,0 7.8,0 15.4,-6.9 15,-15 -0.4,-8.2 -6.6,-15 -15,-15 z"
           id="path16"
           style="fill:#0296cc;fill-opacity:1" /></g></g><g
       id="g26"
       style="fill:#0296cc;fill-opacity:1"><g
         id="g24"
         style="fill:#0296cc;fill-opacity:1"><path
           d="m 345.6,906.2 c 37.5,0 74.9,0 112.4,0 59.7,0 119.5,0 179.2,0 13.7,0 27.5,0 41.2,0 7.8,0 15.4,-6.9 15,-15 -0.4,-8.1 -6.6,-15 -15,-15 -37.5,0 -74.9,0 -112.4,0 -59.7,0 -119.5,0 -179.2,0 -13.7,0 -27.5,0 -41.2,0 -7.8,0 -15.4,6.9 -15,15 0.4,8.1 6.6,15 15,15 z"
           id="path22"
           style="fill:#0296cc;fill-opacity:1" /></g></g><g
       id="g32"
       style="fill:#0296cc;fill-opacity:1"><g
         id="g30"
         style="fill:#0296cc;fill-opacity:1"><path
           d="m 321.5,339.7 c 0,44.1 0,88.2 0,132.3 0,4.6 0,9.1 0,13.7 0,1.2 0,2.4 0,3.7 0,2.5 -0.9,0.9 0.2,-1.7 3.5,-3.5 7,-7 10.5,-10.5 0.2,-0.1 4.6,0 2.5,-0.2 -0.6,0 -1.2,0 -1.9,0 -2.4,0 -4.7,0 -7.1,0 -7.7,0 -15.4,0 -23.1,0 -17.3,0 -34.5,0 -51.8,0 -2.9,0 -5.9,0 -8.8,0 -0.8,0 -1.7,0 -2.5,0 -2.1,0.1 -0.2,-0.8 2.2,0.2 3.5,3.5 7,7 10.5,10.5 1.1,2.5 0.1,4.3 0.2,2.1 0,-1 0,-2.1 0,-3.1 0,-3.7 0,-7.3 0,-11 0,-12.1 0,-24.2 0,-36.3 0,-27 0,-53.9 0,-80.9 0,-4.6 0,-9.1 0,-13.7 0,-1.2 0,-2.4 0,-3.7 0,-2.5 0.9,-0.9 -0.2,1.7 -3.5,3.5 -7,7 -10.5,10.5 -0.2,0.1 -4.6,0 -2.5,0.2 0.6,0 1.2,0 1.9,0 2.4,0 4.7,0 7.1,0 7.7,0 15.4,0 23.1,0 17.3,0 34.5,0 51.8,0 2.9,0 5.9,0 8.8,0 0.8,0 1.7,0 2.5,0 2.1,-0.1 0.2,0.8 -2.2,-0.2 -3.5,-3.5 -7,-7 -10.5,-10.5 0.1,0.3 0.2,0.5 0.3,0.8 3.1,7.5 9.9,12.8 18.5,10.5 7.1,-1.9 13.6,-10.9 10.5,-18.5 -3.3,-8 -9,-12 -17.5,-12.2 -3.1,0 -6.3,0 -9.4,0 -11.1,0 -22.1,0 -33.2,0 -11.8,0 -23.5,0 -35.3,0 -5.6,0 -11.4,-0.4 -17,0 -9.5,0.6 -15.9,7.6 -16.2,17 -0.1,2 0,3.9 0,5.9 0,8.3 0,16.6 0,25 0,24.1 0,48.1 0,72.2 0,15.5 -0.6,31.1 0,46.5 0.4,9.2 6.7,16.4 16.2,16.8 1.8,0.1 3.6,0 5.4,0 9.7,0 19.5,0 29.2,0 20.2,0 40.4,0.3 60.5,0 9.4,-0.2 17.2,-6.3 17.7,-16.2 0,-1 0,-2 0,-3 0,-6.9 0,-13.9 0,-20.8 0,-41.4 0,-82.9 0,-124.3 0,-1 0,-2 0,-3 0,-7.8 -6.9,-15.4 -15,-15 -8,0.5 -14.9,6.8 -14.9,15.2 z"
           id="path28"
           style="fill:#0296cc;fill-opacity:1" /></g></g><g
       id="g38"
       style="fill:#0296cc;fill-opacity:1"><g
         id="g36"
         style="fill:#0296cc;fill-opacity:1"><path
           d="m 302,593.9 c 0,-29.8 0,-59.5 0,-89.3 0,-4.2 0,-8.5 0,-12.7 0,-7.8 -6.9,-15.4 -15,-15 -8.1,0.4 -15,6.6 -15,15 0,29.8 0,59.5 0,89.3 0,4.2 0,8.5 0,12.7 0,7.8 6.9,15.4 15,15 8.1,-0.3 15,-6.6 15,-15 z"
           id="path34"
           style="fill:#0296cc;fill-opacity:1" /></g></g><g
       id="g44"
       style="fill:#0296cc;fill-opacity:1"><g
         id="g42"
         style="fill:#0296cc;fill-opacity:1"><path
           d="m 302,338.5 c 0,-20 0,-39.9 0,-59.9 0,-7.8 -6.9,-15.4 -15,-15 -8.1,0.4 -15,6.6 -15,15 0,20 0,39.9 0,59.9 0,7.8 6.9,15.4 15,15 8.1,-0.3 15,-6.6 15,-15 z"
           id="path40"
           style="fill:#0296cc;fill-opacity:1" /></g></g><g
       id="g50"
       style="fill:#0296cc;fill-opacity:1"><g
         id="g48"
         style="fill:#0296cc;fill-opacity:1"><path
           d="m 546,401.2 c 0,44.1 0,88.2 0,132.3 0,4.6 0,9.1 0,13.7 0,1.2 0,2.4 0,3.7 0,2.5 -0.9,0.9 0.2,-1.7 3.5,-3.5 7,-7 10.5,-10.5 0.2,-0.1 4.6,0 2.5,-0.2 -0.6,0 -1.2,0 -1.9,0 -2.4,0 -4.7,0 -7.1,0 -7.7,0 -15.4,0 -23.1,0 -17.3,0 -34.5,0 -51.8,0 -2.9,0 -5.9,0 -8.8,0 -0.8,0 -1.7,0 -2.5,0 -2.1,0.1 -0.2,-0.8 2.2,0.2 3.5,3.5 7,7 10.5,10.5 1.1,2.5 0.1,4.3 0.2,2.1 0,-1 0,-2.1 0,-3.1 0,-3.7 0,-7.3 0,-11 0,-12.1 0,-24.2 0,-36.3 0,-27 0,-53.9 0,-80.9 0,-4.6 0,-9.1 0,-13.7 0,-1.2 0,-2.4 0,-3.7 0,-2.5 0.9,-0.9 -0.2,1.7 -3.5,3.5 -7,7 -10.5,10.5 -0.2,0.1 -4.6,0 -2.5,0.2 0.6,0 1.2,0 1.9,0 2.4,0 4.7,0 7.1,0 7.7,0 15.4,0 23.1,0 17.3,0 34.5,0 51.8,0 2.9,0 5.9,0 8.8,0 0.8,0 1.7,0 2.5,0 2.1,-0.1 0.2,0.8 -2.2,-0.2 -3.5,-3.5 -7,-7 -10.5,-10.5 0.1,0.3 0.2,0.5 0.3,0.8 3.1,7.5 9.9,12.8 18.5,10.5 7.1,-1.9 13.6,-10.9 10.5,-18.5 -3.3,-8 -9,-12 -17.5,-12.2 -3.1,0 -6.3,0 -9.4,0 -11.1,0 -22.1,0 -33.2,0 -11.8,0 -23.5,0 -35.3,0 -5.6,0 -11.4,-0.4 -17,0 -9.5,0.6 -15.9,7.6 -16.2,17 -0.1,2 0,3.9 0,5.9 0,8.3 0,16.6 0,25 0,24.1 0,48.1 0,72.2 0,15.5 -0.6,31.1 0,46.5 0.4,9.2 6.7,16.4 16.2,16.8 1.8,0.1 3.6,0 5.4,0 9.7,0 19.5,0 29.2,0 20.2,0 40.4,0.3 60.5,0 9.4,-0.2 17.2,-6.3 17.7,-16.2 0,-1 0,-2 0,-3 0,-6.9 0,-13.9 0,-20.8 0,-41.4 0,-82.9 0,-124.3 0,-1 0,-2 0,-3 0,-7.8 -6.9,-15.4 -15,-15 -8,0.6 -14.9,6.8 -14.9,15.2 z"
           id="path46"
           style="fill:#0296cc;fill-opacity:1" /></g></g><g
       id="g56"
       style="fill:#0296cc;fill-opacity:1"><g
         id="g54"
         style="fill:#0296cc;fill-opacity:1"><path
           d="m 526.5,662.4 c 0,-31.8 0,-63.7 0,-95.5 0,-4.5 0,-9 0,-13.4 0,-7.8 -6.9,-15.4 -15,-15 -8.1,0.4 -15,6.6 -15,15 0,31.8 0,63.7 0,95.5 0,4.5 0,9 0,13.4 0,7.8 6.9,15.4 15,15 8.1,-0.3 15,-6.6 15,-15 z"
           id="path52"
           style="fill:#0296cc;fill-opacity:1" /></g></g><g
       id="g62"
       style="fill:#0296cc;fill-opacity:1"><g
         id="g60"
         style="fill:#0296cc;fill-opacity:1"><path
           d="m 526.5,400 c 0,-20 0,-39.9 0,-59.9 0,-7.8 -6.9,-15.4 -15,-15 -8.1,0.4 -15,6.6 -15,15 0,20 0,39.9 0,59.9 0,7.8 6.9,15.4 15,15 8.1,-0.3 15,-6.5 15,-15 z"
           id="path58"
           style="fill:#0296cc;fill-opacity:1" /></g></g><g
       id="g68"
       style="fill:#0296cc;fill-opacity:1"><g
         id="g66"
         style="fill:#0296cc;fill-opacity:1"><path
           d="m 770.5,280 c 0,25.4 0,50.7 0,76.1 0,40.4 0,80.7 0,121.1 0,6.6 0,13.3 0,19.9 0,1.9 0,3.8 0,5.6 0,3 -1,1.7 0.2,-1.1 3.5,-3.5 7,-7 10.5,-10.5 0.2,-0.1 4.6,0 2.5,-0.2 -0.6,0 -1.2,0 -1.9,0 -2.4,0 -4.7,0 -7.1,0 -7.7,0 -15.4,0 -23.1,0 -17.3,0 -34.5,0 -51.8,0 -2.9,0 -5.9,0 -8.8,0 -0.8,0 -1.7,0 -2.5,0 -2.1,0.1 -0.2,-0.8 2.2,0.2 3.5,3.5 7,7 10.5,10.5 1.1,2.6 0.2,4.3 0.2,1.6 0,-1.5 0,-3 0,-4.5 0,-5.5 0,-10.9 0,-16.4 0,-17.9 0,-35.8 0,-53.7 0,-40.4 0,-80.7 0,-121.1 0,-6.6 0,-13.3 0,-19.9 0,-1.9 0,-3.8 0,-5.6 0,-3 1,-1.7 -0.2,1.1 -3.5,3.5 -7,7 -10.5,10.5 -0.2,0.1 -4.6,0 -2.5,0.2 0.6,0 1.2,0 1.9,0 2.4,0 4.7,0 7.1,0 7.7,0 15.4,0 23.1,0 17.3,0 34.5,0 51.8,0 2.9,0 5.9,0 8.8,0 0.8,0 1.7,0 2.5,0 2.1,-0.1 0.2,0.8 -2.2,-0.2 -3.5,-3.5 -7,-7 -10.5,-10.5 0.1,0.3 0.2,0.5 0.3,0.8 3.1,7.5 9.9,12.8 18.5,10.5 7.1,-1.9 13.6,-10.9 10.5,-18.5 -3,-7.3 -7.8,-11.8 -15.9,-12.2 -1.2,-0.1 -2.5,0 -3.7,0 -5.1,0 -10.2,0 -15.4,0 -15.5,0 -31,0 -46.5,0 -10.1,0 -20.3,-0.5 -30.4,0 -9.5,0.5 -16.3,7.2 -16.6,16.7 -0.1,1.9 0,3.9 0,5.8 0,54.4 0,108.9 0,163.3 0,18.1 -0.7,36.3 0,54.3 0.4,9.4 6.9,16.5 16.5,16.9 3.4,0.1 6.8,0 10.2,0 14.3,0 28.5,0 42.8,0 13,0 25.9,0 38.9,0 7.1,0 14.1,-0.7 18.3,-7.8 2.1,-3.6 2.4,-7.2 2.4,-11.1 0,-20.4 0,-40.8 0,-61.2 0,-52.5 0,-105 0,-157.5 0,-1.1 0,-2.2 0,-3.2 0,-7.8 -6.9,-15.4 -15,-15 -8.2,0.4 -15.1,6.7 -15.1,15.1 z"
           id="path64"
           style="fill:#0296cc;fill-opacity:1" /></g></g><g
       id="g74"
       style="fill:#0296cc;fill-opacity:1"><g
         id="g72"
         style="fill:#0296cc;fill-opacity:1"><path
           d="m 751,595.8 c 0,-26.2 0,-52.4 0,-78.5 0,-3.8 0,-7.6 0,-11.3 0,-7.8 -6.9,-15.4 -15,-15 -8.1,0.4 -15,6.6 -15,15 0,26.2 0,52.4 0,78.5 0,3.8 0,7.6 0,11.3 0,7.8 6.9,15.4 15,15 8.1,-0.4 15,-6.6 15,-15 z"
           id="path70"
           style="fill:#0296cc;fill-opacity:1" /></g></g><g
       id="g80"
       style="fill:#0296cc;fill-opacity:1"><g
         id="g78"
         style="fill:#0296cc;fill-opacity:1"><path
           d="m 751,278.8 c 0,-16.1 0,-32.2 0,-48.4 0,-7.8 -6.9,-15.4 -15,-15 -8.1,0.4 -15,6.6 -15,15 0,16.1 0,32.2 0,48.4 0,7.8 6.9,15.4 15,15 8.1,-0.3 15,-6.6 15,-15 z"
           id="path76"
           style="fill:#0296cc;fill-opacity:1" /></g></g></g></svg>
